<?xml version="1.0" encoding="UTF-8"?>
<svg id="Layer_2" data-name="Layer 2" xmlns="http://www.w3.org/2000/svg" viewBox="0 0 894.89 129.11">
  <defs>
    <style>
      .cls-1 {
        fill: #27236a;
      }

      .cls-2 {
        fill: #00a255;
      }
    </style>
  </defs>
  <g id="Layer_1-2" data-name="Layer 1">
    <g>
      <path class="cls-2" d="m33.57,30.95h40.39v-.32s27.44-15.86,27.44-15.86v16.18h40.39c2.53,0,4.6-2.06,4.6-4.6V5.04c0-2.53-2.06-4.6-4.6-4.6H33.57c-2.53,0-4.6,2.06-4.6,4.6v21.31c0,2.53,2.06,4.6,4.6,4.6Z"/>
      <path class="cls-2" d="m141.8,69.94h-39.63l-.77.02h-27.44v-.02h-40.39c-2.53,0-4.6,2.06-4.6,4.6v21.32c0,2.53,2.06,4.6,4.6,4.6h108.23c2.53,0,4.6-2.06,4.6-4.6v-21.32c0-2.53-2.06-4.6-4.6-4.6Z"/>
      <path class="cls-2" d="m73.96,35.21h-7.66l.02-.02H4.6c-2.53,0-4.6,2.06-4.6,4.6v21.31c0,2.53,2.06,4.6,4.6,4.6h69.37v-30.48Z"/>
      <path class="cls-2" d="m170.77,35.21h-69.37v30.48h69.37c2.53,0,4.6-2.06,4.6-4.6v-21.29c0-2.53-2.06-4.6-4.6-4.6Z"/>
    </g>
    <g>
      <path class="cls-1" d="m279.31,90.45c-.47-1.75-.77-4.48-.9-8.12l-.47-13.14c-.23-5.94-1.35-10.15-3.43-12.87-1.72-2.25-4.16-4.15-7.27-5.66,3.69-2.21,6.67-5.03,8.85-8.39,2.51-3.87,3.79-8.89,3.79-14.92,0-11.6-4.83-19.67-14.36-24-4.95-2.22-11.29-3.35-18.86-3.35h-46.29v99.84h15.16v-42.01h29.26c5.26,0,9.13.58,11.52,1.7,4.15,2.03,6.31,5.98,6.6,12.06l.8,16.33c.18,3.91.4,6.48.68,7.88.28,1.42.67,2.6,1.16,3.52l.27.51h17.79v-3.77l-.57-.25c-1.75-.76-3.01-2.57-3.73-5.38Zm-14.8-61.83c0,6.13-1.69,10.4-5.02,12.69-3.44,2.37-8.23,3.57-14.23,3.57h-29.72V13.3h31.46c4.37,0,7.88.64,10.44,1.9,4.76,2.38,7.08,6.77,7.08,13.42Z"/>
      <path class="cls-1" d="m352.86,38.16c-2.57-3.9-6.35-7.12-11.24-9.56s-9.97-3.67-15.16-3.67c-10.28,0-18.74,3.72-25.12,11.06-6.35,7.3-9.57,16.91-9.57,28.56s3.21,21.21,9.53,27.82c6.34,6.63,14.17,9.99,23.29,9.99,3.7,0,7.08-.37,10.01-1.09,5.52-1.28,10.23-3.78,13.97-7.43,2.24-2.1,4.29-4.84,6.09-8.14,1.8-3.31,2.89-6.38,3.21-9.11l.13-1.06h-13.59l-.19.69c-.84,3-2.3,5.68-4.32,7.96-3.53,3.91-8.34,5.89-14.3,5.89-6.45,0-11.06-2.02-14.1-6.18-2.93-4-4.58-9.36-4.91-15.93h52.3v-.95c0-7.23-.37-12.6-1.08-15.89-.82-4.91-2.48-9.28-4.94-12.97Zm-27.13-.86c7.39,0,12.51,2.68,15.64,8.19,1.59,2.77,2.65,6.49,3.17,11.05h-37.62c.38-5.43,2.27-10,5.62-13.57,3.53-3.76,7.96-5.67,13.18-5.67Z"/>
      <path class="cls-1" d="m434.65,89.72c-2.21.22-3.72.02-4.15-.62-.4-.59-.6-1.42-.6-2.47v-41.14c0-7.08-2.78-12.37-8.25-15.74-5.37-3.28-12.43-4.94-20.96-4.94-7.39,0-13.99,1.79-19.61,5.31-5.75,3.61-8.78,10.05-9.01,19.15l-.02.97h13.01l.1-.84c.42-3.5,1.32-6.14,2.67-7.87,2.42-3.12,6.66-4.7,12.59-4.7,5.22,0,9.25.88,11.99,2.62,2.64,1.67,3.93,4.32,3.93,8.1,0,1.84-.24,3.25-.71,4.19-.79,1.66-2.36,2.62-4.8,2.93l-19.14,2.4c-6.87.86-12.52,3.21-16.78,6.96-4.33,3.82-6.52,9.24-6.52,16.11,0,6.29,2.22,11.6,6.59,15.79,4.36,4.18,10.05,6.3,16.89,6.3,5.64,0,10.88-1.22,15.57-3.64,3.91-2.01,7.11-4.37,9.52-7.01.44,2.02,1.05,3.68,1.85,4.94,2.04,3.21,5.34,4.84,9.8,4.84,1.72,0,3.11-.07,4.13-.21,1.03-.14,2.47-.48,4.4-1.03l.69-.2v-10.71l-1.11.2c-.73.13-1.42.23-2.06.29Zm-18.66-25.54v8.05c0,7.05-3.1,11.98-9.47,15.09-3.81,1.88-7.79,2.84-11.85,2.84-3.23,0-6.06-.94-8.41-2.8-2.31-1.83-3.44-4.27-3.44-7.46,0-4.25,1.65-7.25,5.06-9.18,2.06-1.18,5.24-2.06,9.45-2.62l7.26-.93c2.26-.27,4.59-.73,6.93-1.36,1.7-.46,3.19-1,4.47-1.63Z"/>
      <rect class="cls-1" x="448" width="13.9" height="99.84"/>
      <path class="cls-1" d="m535.08,38.16c-2.57-3.9-6.35-7.12-11.24-9.56-4.87-2.43-9.97-3.67-15.16-3.67-10.28,0-18.74,3.72-25.12,11.06-6.35,7.3-9.57,16.91-9.57,28.56s3.21,21.21,9.53,27.82c6.34,6.63,14.17,9.99,23.29,9.99,3.7,0,7.08-.37,10.01-1.09,5.52-1.28,10.23-3.78,13.97-7.43,2.24-2.1,4.29-4.84,6.09-8.14,1.8-3.31,2.89-6.38,3.21-9.11l.13-1.06h-13.59l-.19.69c-.84,3-2.3,5.68-4.32,7.96-3.53,3.91-8.34,5.89-14.3,5.89-6.45,0-11.06-2.02-14.1-6.18-2.93-4-4.58-9.36-4.91-15.93h52.3v-.95c0-7.23-.37-12.6-1.08-15.89-.82-4.91-2.48-9.28-4.94-12.97Zm-27.13-.86c7.39,0,12.51,2.68,15.64,8.19,1.59,2.77,2.65,6.49,3.17,11.05h-37.62c.38-5.43,2.27-10,5.62-13.57,3.53-3.76,7.96-5.67,13.18-5.67Z"/>
      <path class="cls-1" d="m602.96,62.97c-3.06-2.04-8.83-4.06-17.64-6.2l-7.93-1.93c-3.35-.82-5.91-1.76-7.6-2.82-2.79-1.7-4.14-3.88-4.14-6.66,0-2.55,1.02-4.55,3.12-6.11,2.16-1.6,5.43-2.41,9.74-2.41,6.48,0,11.07,1.48,13.58,4.36,1.57,2.07,2.47,4.39,2.68,6.9l.07.87h13.14l.02-.93c.09-4.82-1.43-9.37-4.52-13.52-4.92-6.53-13.01-9.85-24.03-9.85-8.42,0-15.23,2.19-20.25,6.5-5.06,4.35-7.63,10.11-7.63,17.12,0,6.05,2.75,10.86,8.17,14.26,2.96,1.92,7.59,3.66,13.75,5.19l9.53,2.4c5.01,1.26,8.38,2.38,10.02,3.3,2.42,1.43,3.6,3.45,3.6,6.18,0,3.71-1.5,6.38-4.59,8.14-3.22,1.84-7.01,2.78-11.26,2.78-7.13,0-12.17-1.83-14.98-5.43-1.53-1.98-2.47-4.91-2.81-8.71l-.08-.86h-13.39l.04.99c.32,7.31,2.79,13.53,7.35,18.5,4.59,5,12.42,7.54,23.27,7.54,10.08,0,17.71-2.42,22.69-7.2,5-4.79,7.53-10.56,7.53-17.15s-2.5-12.02-7.42-15.26Z"/>
      <path class="cls-1" d="m721.8,79.6l-13.28-53.06h-14.95l-13.18,53.25-13-53.25h-28.73V6.6h-14.03v19.94h-9.67v11.7h9.67v46.32c0,4.76,1.07,8.69,3.17,11.71,2.18,3.12,6.28,4.71,12.18,4.71,1.76,0,3.43-.09,4.95-.27,1.53-.18,3.03-.49,4.45-.9l.68-.2v-11.23l-1.04.1c-.86.09-1.62.14-2.27.16-.66.02-1.27.03-1.84.03-2.51,0-3.68-.34-4.24-.63-1.35-.68-2.01-2.03-2.01-4.15v-45.66h16.97l17.78,61.61h13.92l13.35-52.44,13.79,52.44h13.91l21.29-73.31h-14l-13.85,53.06Z"/>
      <path class="cls-1" d="m821.7,89.72c-2.22.22-3.72.02-4.15-.62-.4-.59-.6-1.42-.6-2.47v-41.14c0-7.08-2.78-12.37-8.25-15.74-5.37-3.28-12.43-4.94-20.96-4.94-7.39,0-13.99,1.79-19.61,5.31-5.75,3.61-8.78,10.05-9.01,19.15l-.02.97h13.01l.1-.84c.42-3.5,1.32-6.14,2.67-7.87,2.42-3.12,6.66-4.7,12.59-4.7,5.22,0,9.25.88,11.99,2.62,2.64,1.67,3.93,4.32,3.93,8.1,0,1.84-.24,3.25-.71,4.19-.79,1.66-2.36,2.62-4.8,2.93l-19.14,2.4c-6.87.86-12.52,3.21-16.78,6.96-4.33,3.82-6.52,9.24-6.52,16.11,0,6.29,2.22,11.6,6.59,15.79,4.36,4.18,10.05,6.3,16.89,6.3,5.64,0,10.88-1.22,15.57-3.64,3.91-2.01,7.11-4.37,9.52-7.01.44,2.02,1.05,3.68,1.85,4.94,2.04,3.21,5.34,4.84,9.8,4.84,1.72,0,3.11-.07,4.13-.21,1.03-.14,2.47-.48,4.4-1.03l.69-.2v-10.71l-1.11.2c-.73.13-1.42.23-2.06.29Zm-18.66-25.54v8.05c0,7.05-3.1,11.98-9.47,15.09-3.81,1.88-7.79,2.84-11.85,2.84-3.23,0-6.06-.94-8.41-2.8-2.31-1.83-3.44-4.27-3.44-7.46,0-4.25,1.65-7.25,5.06-9.18,2.06-1.18,5.24-2.06,9.45-2.62l7.26-.93c2.26-.27,4.59-.73,6.93-1.36,1.7-.46,3.19-1,4.47-1.63Z"/>
      <path class="cls-1" d="m879.58,26.54l-18.58,56.07-18.24-55.41-.21-.65h-15.64l26.74,74.41c-.63,1.59-1.58,3.92-2.86,6.98-1.84,4.38-2.24,5.19-2.32,5.31-.64.96-1.45,1.79-2.39,2.45-.88.62-2.34.93-4.36.93-.66,0-1.45-.06-2.33-.19-.89-.13-2.37-.48-4.42-1.04l-1.2-.33v12.91l.7.19c1.36.36,2.53.62,3.47.76.96.14,2.29.21,4.04.21,7.23,0,12.42-2.15,15.44-6.4,2.92-4.1,7.75-15.08,14.78-33.55,2.92-7.7,6.6-17.8,10.94-30.02,5.8-16.23,9.58-26.77,11.26-31.33l.47-1.28h-15.31Z"/>
    </g>
  </g>
</svg>